<mxfile host="app.diagrams.net" modified="2023-09-15T04:51:29.169Z" agent="Mozilla/5.0 (X11; Linux x86_64) AppleWebKit/537.36 (KHTML, like Gecko) Chrome/117.0.0.0 Safari/537.36" version="21.7.5" etag="auC8JYf_W2wE7W4ZnOzE" type="github">
  <diagram name="Page-1" id="aCiQO6UszsXGfQdciSwg">
    <mxGraphModel>
      <root>
        <mxCell id="0" />
        <mxCell id="1" parent="0" />
      </root>
    </mxGraphModel>
  </diagram>
</mxfile>
